[h264 @ 0x56190f197700] Reinit context to 1280x720, pix_fmt: yuv420p
Input #0, mov,mp4,m4a,3gp,3g2,mj2, from '/var/www/html/project/media/video/original/dgfgsdfvgjsw.mp4':
  Metadata:
    major_brand     : mp42
    minor_version   : 1
    compatible_brands: isommp41mp42
    creation_time   : 2025-09-18T13:18:20.000000Z
  Duration: 00:00:15.32, start: 0.000000, bitrate: 4272 kb/s
    Stream #0:0(eng): Audio: aac (LC) (mp4a / 0x6134706D), 48000 Hz, stereo, fltp, 65 kb/s (default)
    Metadata:
      creation_time   : 2025-09-18T13:18:20.000000Z
      handler_name    : Core Media Audio
    Stream #0:1(und): Video: h264 (High), 1 reference frame (avc1 / 0x31637661), yuv420p(tv, bt709, progressive, left), 1280x720 [SAR 1:1 DAR 16:9], 4112 kb/s, 25 fps, 25 tbr, 25k tbn, 50k tbc (default)
    Metadata:
      creation_time   : 2025-09-18T13:18:20.000000Z
      handler_name    : Core Media Video
Input #1, png_pipe, from '/var/www/html/project/static/images/templates/logo.png':
  Duration: N/A, bitrate: N/A
    Stream #1:0: Video: png, 1 reference frame, rgba(pc), 1920x1080 [SAR 2835:2835 DAR 16:9], 25 tbr, 25 tbn, 25 tbc
[h264 @ 0x56190f1e4b00] Reinit context to 1280x720, pix_fmt: yuv420p
Input #2, mov,mp4,m4a,3gp,3g2,mj2, from '/var/www/html/project/static/images/templates/Codino.mp4':
  Metadata:
    major_brand     : mp42
    minor_version   : 1
    compatible_brands: isommp41mp42
    creation_time   : 2021-07-11T07:02:58.000000Z
  Duration: 00:00:02.00, start: 0.000000, bitrate: 1007 kb/s
    Stream #2:0(ita): Audio: aac (LC) (mp4a / 0x6134706D), 44100 Hz, stereo, fltp, 102 kb/s (default)
    Metadata:
      creation_time   : 2021-07-11T07:02:58.000000Z
      handler_name    : Core Media Audio
    Stream #2:1(und): Video: h264 (High), 1 reference frame (avc1 / 0x31637661), yuv420p(tv, bt709, progressive, left), 1280x720 [SAR 1:1 DAR 16:9], 813 kb/s, 25 fps, 25 tbr, 25k tbn, 50k tbc (default)
    Metadata:
      creation_time   : 2021-07-11T07:02:58.000000Z
      handler_name    : Core Media Video
[Parsed_scale_0 @ 0x56190f1dde00] w:1280 h:720 flags:'bilinear' interl:0
[Parsed_scale_2 @ 0x56190f21f780] w:1280 h:720 flags:'bilinear' interl:0
[Parsed_scale_4 @ 0x56190f1c8ec0] w:1280 h:720 flags:'bilinear' interl:0
Stream mapping:
  Stream #0:0 (aac) -> concat:in0:a0
  Stream #0:1 (h264) -> scale
  Stream #1:0 (png) -> scale
  Stream #2:0 (aac) -> concat:in1:a0
  Stream #2:1 (h264) -> scale
  concat:out:v0 -> Stream #0:0 (libx264)
  concat:out:a0 -> Stream #0:1 (aac)
Press [q] to stop, [?] for help
[h264 @ 0x56190f1bf680] Reinit context to 1280x720, pix_fmt: yuv420p
[h264 @ 0x56190f5bd580] Reinit context to 1280x720, pix_fmt: yuv420p
[Parsed_scale_0 @ 0x56191055cdc0] w:1280 h:720 flags:'bilinear' interl:0
[Parsed_scale_2 @ 0x56190f304e40] w:1280 h:720 flags:'bilinear' interl:0
[Parsed_scale_4 @ 0x561910566800] w:1280 h:720 flags:'bilinear' interl:0
[graph 0 input from stream 0:1 @ 0x56191056b000] w:1280 h:720 pixfmt:yuv420p tb:1/25000 fr:25/1 sar:1/1 sws_param:flags=2
[graph 0 input from stream 1:0 @ 0x56191056c080] w:1920 h:1080 pixfmt:rgba tb:1/25 fr:25/1 sar:2835/2835 sws_param:flags=2
[graph 0 input from stream 2:1 @ 0x56191056d100] w:1280 h:720 pixfmt:yuv420p tb:1/25000 fr:25/1 sar:1/1 sws_param:flags=2
[graph_0_in_0_0 @ 0x56191056e080] tb:1/48000 samplefmt:fltp samplerate:48000 chlayout:0x3
[graph_0_in_2_0 @ 0x56191056f1c0] tb:1/44100 samplefmt:fltp samplerate:44100 chlayout:0x3
[Parsed_concat_7 @ 0x561910569080] auto-inserting filter 'auto_resampler_0' between the filter 'graph_0_in_2_0' and the filter 'Parsed_concat_7'
[Parsed_scale_0 @ 0x56191055cdc0] w:1280 h:720 fmt:yuv420p sar:1/1 -> w:1280 h:720 fmt:yuv420p sar:1/1 flags:0x2
[Parsed_setsar_1 @ 0x56191055d000] w:1280 h:720 sar:1/1 dar:16/9 -> sar:1/1 dar:16/9
[Parsed_scale_2 @ 0x56190f304e40] w:1920 h:1080 fmt:rgba sar:2835/2835 -> w:1280 h:720 fmt:yuva420p sar:1/1 flags:0x2
[Parsed_setsar_3 @ 0x561910565dc0] w:1280 h:720 sar:1/1 dar:16/9 -> sar:1/1 dar:16/9
[Parsed_overlay_6 @ 0x561910567f40] main w:1280 h:720 fmt:yuv420p overlay w:1280 h:720 fmt:yuva420p
[Parsed_overlay_6 @ 0x561910567f40] [framesync @ 0x5619105680a8] Selected 1/25000 time base
[Parsed_overlay_6 @ 0x561910567f40] [framesync @ 0x5619105680a8] Sync level 2
[Parsed_scale_4 @ 0x561910566800] w:1280 h:720 fmt:yuv420p sar:1/1 -> w:1280 h:720 fmt:yuv420p sar:1/1 flags:0x2
[Parsed_setsar_5 @ 0x561910567340] w:1280 h:720 sar:1/1 dar:16/9 -> sar:1/1 dar:16/9
[auto_resampler_0 @ 0x561910575cc0] ch:2 chl:stereo fmt:fltp r:44100Hz -> ch:2 chl:stereo fmt:fltp r:48000Hz
[libx264 @ 0x56190f1bc140] using SAR=1/1
[libx264 @ 0x56190f1bc140] using cpu capabilities: MMX2 SSE2Fast SSSE3 SSE4.2 AVX FMA3 BMI2 AVX2
[libx264 @ 0x56190f1bc140] profile High, level 3.1
[libx264 @ 0x56190f1bc140] 264 - core 155 r2917 0a84d98 - H.264/MPEG-4 AVC codec - Copyleft 2003-2018 - http://www.videolan.org/x264.html - options: cabac=1 ref=1 deblock=1:0:0 analyse=0x3:0x113 me=hex subme=2 psy=1 psy_rd=1.00:0.00 mixed_ref=0 me_range=16 chroma_me=1 trellis=0 8x8dct=1 cqm=0 deadzone=21,11 fast_pskip=1 chroma_qp_offset=0 threads=22 lookahead_threads=5 sliced_threads=0 nr=0 decimate=1 interlaced=0 bluray_compat=0 constrained_intra=0 bframes=3 b_pyramid=2 b_adapt=1 b_bias=0 direct=1 weightb=1 open_gop=0 weightp=1 keyint=250 keyint_min=25 scenecut=40 intra_refresh=0 rc_lookahead=10 rc=crf mbtree=1 crf=18.0 qcomp=0.60 qpmin=0 qpmax=69 qpstep=4 ip_ratio=1.40 aq=1:1.00
Output #0, mp4, to '/var/www/html/project/media/video/watermarks/dgfgsdfvgjsw.mp4':
  Metadata:
    major_brand     : mp42
    minor_version   : 1
    compatible_brands: isommp41mp42
    encoder         : Lavf58.29.100
    Stream #0:0: Video: h264 (libx264), 1 reference frame (avc1 / 0x31637661), yuv420p(progressive), 1280x720 [SAR 1:1 DAR 16:9], q=-1--1, 25 fps, 12800 tbn, 25 tbc (default)
    Metadata:
      encoder         : Lavc58.54.100 libx264
    Side data:
      cpb: bitrate max/min/avg: 0/0/0 buffer size: 0 vbv_delay: -1
    Stream #0:1: Audio: aac (LC) (mp4a / 0x6134706D), 48000 Hz, stereo, fltp, delay 1024, 128 kb/s (default)
    Metadata:
      encoder         : Lavc58.54.100 aac
[Parsed_concat_7 @ 0x561910569080] EOF on in0:a0, 1 streams left in segment.
[Parsed_overlay_6 @ 0x561910567f40] [framesync @ 0x5619105680a8] Sync level 0
[Parsed_concat_7 @ 0x561910569080] EOF on in0:v0, 0 streams left in segment.
[Parsed_concat_7 @ 0x561910569080] Segment finished at pts=15337333
[Parsed_concat_7 @ 0x561910569080] EOF on in1:v0, 1 streams left in segment.
[Parsed_concat_7 @ 0x561910569080] EOF on in1:a0, 0 streams left in segment.
[Parsed_concat_7 @ 0x561910569080] Segment finished at pts=17356020
No more output streams to write to, finishing.
frame=  433 fps=193 q=-1.0 Lsize=    5291kB time=00:00:17.36 bitrate=2496.1kbits/s speed=7.73x    
[AVIOContext @ 0x56190f193ec0] Statistics: 0 seeks, 5 writeouts
video:5012kB audio:265kB subtitle:0kB other streams:0kB global headers:0kB muxing overhead: 0.269023%
Input file #0 (/var/www/html/project/media/video/original/dgfgsdfvgjsw.mp4):
  Input stream #0:0 (audio): 721 packets read (126531 bytes); 719 frames decoded (736192 samples); 
  Input stream #0:1 (video): 383 packets read (7875817 bytes); 383 frames decoded; 
  Total: 1104 packets (8002348 bytes) demuxed
Input file #1 (/var/www/html/project/static/images/templates/logo.png):
  Input stream #1:0 (video): 1 packets read (111578 bytes); 1 frames decoded; 
  Total: 1 packets (111578 bytes) demuxed
Input file #2 (/var/www/html/project/static/images/templates/Codino.mp4):
  Input stream #2:0 (audio): 89 packets read (26579 bytes); 87 frames decoded (89024 samples); 
  Input stream #2:1 (video): 50 packets read (203365 bytes); 50 frames decoded; 
  Total: 139 packets (229944 bytes) demuxed
Output file #0 (/var/www/html/project/media/video/watermarks/dgfgsdfvgjsw.mp4):
  Output stream #0:0 (video): 433 frames encoded; 433 packets muxed (5132317 bytes); 
  Output stream #0:1 (audio): 814 frames encoded (833089 samples); 815 packets muxed (271301 bytes); 
  Total: 1248 packets (5403618 bytes) muxed
[AVIOContext @ 0x56190f1decc0] Statistics: 2 seeks, 24 writeouts
[libx264 @ 0x56190f1bc140] frame I:4     Avg QP:11.32  size: 64319
[libx264 @ 0x56190f1bc140] frame P:147   Avg QP:15.05  size: 21529
[libx264 @ 0x56190f1bc140] frame B:282   Avg QP:17.15  size:  6063
[libx264 @ 0x56190f1bc140] consecutive B-frames:  4.4% 25.9%  1.4% 68.4%
[libx264 @ 0x56190f1bc140] mb I  I16..4: 44.2% 23.3% 32.5%
[libx264 @ 0x56190f1bc140] mb P  I16..4: 16.9% 13.5%  2.0%  P16..4: 23.4% 11.5%  6.8%  0.0%  0.0%    skip:26.0%
[libx264 @ 0x56190f1bc140] mb B  I16..4:  2.4%  1.9%  0.1%  B16..8: 19.7%  7.4%  0.8%  direct:16.2%  skip:51.5%  L0:42.6% L1:44.4% BI:13.0%
[libx264 @ 0x56190f1bc140] 8x8 transform intra:40.8% inter:45.5%
[libx264 @ 0x56190f1bc140] coded y,uvDC,uvAC intra: 32.9% 51.0% 19.6% inter: 10.5% 27.6% 1.0%
[libx264 @ 0x56190f1bc140] i16 v,h,dc,p: 56% 24%  8% 12%
[libx264 @ 0x56190f1bc140] i8 v,h,dc,ddl,ddr,vr,hd,vl,hu: 17% 51% 22%  2%  1%  1%  2%  1%  2%
[libx264 @ 0x56190f1bc140] i4 v,h,dc,ddl,ddr,vr,hd,vl,hu: 29% 32% 13%  3%  4%  4%  5%  4%  5%
[libx264 @ 0x56190f1bc140] i8c dc,h,v,p: 51% 31% 11%  7%
[libx264 @ 0x56190f1bc140] Weighted P-Frames: Y:4.1% UV:0.0%
[libx264 @ 0x56190f1bc140] kb/s:2370.27
[aac @ 0x56190f34d440] Qavg: 2745.365
[AVIOContext @ 0x56190f19ce40] Statistics: 25169821 bytes read, 730 seeks
[AVIOContext @ 0x56190f1f9640] Statistics: 111578 bytes read, 0 seeks
[AVIOContext @ 0x56190f198d40] Statistics: 1530915 bytes read, 42 seeks
